<svg id="7b759ea3-e10e-4926-a51c-465bf170f415" data-name="Svgs" xmlns="http://www.w3.org/2000/svg" width="137" height="42" viewBox="0 0 137 42">
  <title>appstore</title>
  <g>
    <path d="M131.2,41H5.73A4.74,4.74,0,0,1,1,36.27V5.73A4.73,4.73,0,0,1,5.73,1H131.2A4.8,4.8,0,0,1,136,5.73V36.27A4.8,4.8,0,0,1,131.2,41Z" style="fill: #a6a6a6"/>
    <path d="M135,36.27a3.83,3.83,0,0,1-3.83,3.83H5.73a3.83,3.83,0,0,1-3.84-3.83V5.73A3.84,3.84,0,0,1,5.73,1.89H131.2A3.83,3.83,0,0,1,135,5.73V36.27Z"/>
    <g>
      <path d="M31.13,20.78a5.8,5.8,0,0,1,2.76-4.86,5.94,5.94,0,0,0-4.68-2.53c-2-.21-3.87,1.18-4.88,1.18s-2.57-1.16-4.23-1.12a6.23,6.23,0,0,0-5.24,3.2c-2.27,3.92-.58,9.69,1.6,12.86,1.09,1.55,2.36,3.29,4,3.23s2.23-1,4.19-1,2.51,1,4.21,1,2.84-1.56,3.89-3.13a12.83,12.83,0,0,0,1.78-3.62A5.6,5.6,0,0,1,31.13,20.78Z" style="fill: #fff"/>
      <path d="M27.93,11.31a5.71,5.71,0,0,0,1.31-4.09,5.81,5.81,0,0,0-3.76,1.94,5.43,5.43,0,0,0-1.34,3.94A4.8,4.8,0,0,0,27.93,11.31Z" style="fill: #fff"/>
    </g>
    <g>
      <path d="M54.65,32.5H52.37L51.13,28.6H46.81L45.62,32.5H43.41L47.69,19.2h2.65ZM50.76,27l-1.12-3.48Q49.45,22.95,49,21h0q-.2.85-.63,2.51L47.18,27Z" style="fill: #fff"/>
      <path d="M65.66,27.59a5.45,5.45,0,0,1-1.32,3.87,3.87,3.87,0,0,1-2.94,1.26,2.94,2.94,0,0,1-2.72-1.36h0v5.05H56.5V26.07q0-1.54-.08-3.16H58.3l.12,1.52h0a3.79,3.79,0,0,1,6.07-.38A5.29,5.29,0,0,1,65.66,27.59Zm-2.17.08a4,4,0,0,0-.63-2.31A2.18,2.18,0,0,0,61,24.41a2.22,2.22,0,0,0-1.43.52,2.43,2.43,0,0,0-.84,1.37,2.79,2.79,0,0,0-.1.65v1.6a2.56,2.56,0,0,0,.64,1.77,2.13,2.13,0,0,0,1.67.72,2.18,2.18,0,0,0,1.88-.93A4.08,4.08,0,0,0,63.49,27.67Z" style="fill: #fff"/>
      <path d="M76.7,27.59a5.45,5.45,0,0,1-1.32,3.87,3.86,3.86,0,0,1-2.94,1.26,2.94,2.94,0,0,1-2.72-1.36h0v5.05H67.54V26.07q0-1.54-.08-3.16h1.88l.12,1.52h0a3.79,3.79,0,0,1,6.07-.38A5.3,5.3,0,0,1,76.7,27.59Zm-2.17.08a4,4,0,0,0-.63-2.31A2.18,2.18,0,0,0,72,24.41a2.22,2.22,0,0,0-1.43.52,2.42,2.42,0,0,0-.84,1.37,2.85,2.85,0,0,0-.1.65v1.6a2.57,2.57,0,0,0,.64,1.77A2.13,2.13,0,0,0,72,31a2.18,2.18,0,0,0,1.88-.93A4.08,4.08,0,0,0,74.53,27.67Z" style="fill: #fff"/>
      <path d="M89,28.77a3.55,3.55,0,0,1-1.18,2.76,5.24,5.24,0,0,1-3.62,1.17,6.35,6.35,0,0,1-3.45-.83l.49-1.78a5.84,5.84,0,0,0,3.08.85,2.91,2.91,0,0,0,1.88-.54,1.78,1.78,0,0,0,.67-1.45,1.85,1.85,0,0,0-.55-1.36,5.14,5.14,0,0,0-1.84-1Q81,25.25,81,22.74A3.38,3.38,0,0,1,82.25,20a4.83,4.83,0,0,1,3.26-1,6.46,6.46,0,0,1,3,.63L88,21.37a5.24,5.24,0,0,0-2.55-.61,2.58,2.58,0,0,0-1.76.55,1.58,1.58,0,0,0-.53,1.2,1.63,1.63,0,0,0,.61,1.3,6.91,6.91,0,0,0,1.94,1,6.57,6.57,0,0,1,2.53,1.62A3.38,3.38,0,0,1,89,28.77Z" style="fill: #fff"/>
      <path d="M96.09,24.51H93.74v4.66q0,1.78,1.24,1.78a3.79,3.79,0,0,0,.95-.1L96,32.46a4.83,4.83,0,0,1-1.66.24,2.56,2.56,0,0,1-2-.77,3.78,3.78,0,0,1-.71-2.59V24.51h-1.4v-1.6h1.4V21.15l2.09-.63v2.39h2.35Z" style="fill: #fff"/>
      <path d="M106.69,27.63a5.26,5.26,0,0,1-1.26,3.63,4.51,4.51,0,0,1-3.52,1.46,4.29,4.29,0,0,1-3.36-1.4,5.1,5.1,0,0,1-1.25-3.53,5.21,5.21,0,0,1,1.29-3.65,4.47,4.47,0,0,1,3.48-1.42,4.38,4.38,0,0,1,3.4,1.4A5,5,0,0,1,106.69,27.63Zm-2.21.07a4.32,4.32,0,0,0-.57-2.28A2.11,2.11,0,0,0,102,24.27a2.14,2.14,0,0,0-2,1.15,4.4,4.4,0,0,0-.57,2.32A4.31,4.31,0,0,0,100,30a2.18,2.18,0,0,0,3.85,0A4.33,4.33,0,0,0,104.48,27.7Z" style="fill: #fff"/>
      <path d="M113.62,24.78a3.7,3.7,0,0,0-.67-.06,2,2,0,0,0-1.74.85,3.19,3.19,0,0,0-.53,1.9v5h-2.13l0-6.57q0-1.66-.08-3h1.86l.08,1.84h.06a3.28,3.28,0,0,1,1.07-1.52,2.58,2.58,0,0,1,1.54-.51,3.42,3.42,0,0,1,.53,0Z" style="fill: #fff"/>
      <path d="M123.16,27.25a5,5,0,0,1-.08,1h-6.4a2.78,2.78,0,0,0,.93,2.17,3.17,3.17,0,0,0,2.09.67,7.07,7.07,0,0,0,2.59-.45l.33,1.48a8,8,0,0,1-3.22.59,4.66,4.66,0,0,1-3.51-1.31,4.85,4.85,0,0,1-1.27-3.52,5.5,5.5,0,0,1,1.19-3.61,4.09,4.09,0,0,1,3.36-1.54,3.58,3.58,0,0,1,3.14,1.54A5.19,5.19,0,0,1,123.16,27.25Zm-2-.55a2.9,2.9,0,0,0-.41-1.64,1.86,1.86,0,0,0-1.7-.89,2,2,0,0,0-1.7.87,3.18,3.18,0,0,0-.63,1.66h4.44Z" style="fill: #fff"/>
    </g>
    <g>
      <path d="M50.05,11A3.28,3.28,0,0,1,49,13.67a4.21,4.21,0,0,1-2.78.82,12.9,12.9,0,0,1-1.53-.08V8a11.31,11.31,0,0,1,1.81-.14,3.89,3.89,0,0,1,2.59.75A3,3,0,0,1,50.05,11Zm-1.1,0a2.39,2.39,0,0,0-.61-1.76,2.39,2.39,0,0,0-1.77-.61,4.44,4.44,0,0,0-.84.07v4.89a5.53,5.53,0,0,0,.71,0A2.48,2.48,0,0,0,48.29,13,2.68,2.68,0,0,0,48.95,11Z" style="fill: #fff"/>
      <path d="M55.91,12a2.59,2.59,0,0,1-.62,1.78,2.22,2.22,0,0,1-1.73.72,2.11,2.11,0,0,1-1.65-.69,2.51,2.51,0,0,1-.62-1.74,2.56,2.56,0,0,1,.63-1.79,2.2,2.2,0,0,1,1.71-.7,2.16,2.16,0,0,1,1.67.69A2.49,2.49,0,0,1,55.91,12Zm-1.09,0A2.13,2.13,0,0,0,54.54,11a1,1,0,0,0-.94-.56,1.05,1.05,0,0,0-1,.56,2.16,2.16,0,0,0-.28,1.14,2.13,2.13,0,0,0,.28,1.12,1.06,1.06,0,0,0,1,.56,1,1,0,0,0,.94-.57A2.12,2.12,0,0,0,54.82,12.07Z" style="fill: #fff"/>
      <path d="M63.77,9.72l-1.47,4.71h-1l-.61-2a15.32,15.32,0,0,1-.38-1.52h0a11.15,11.15,0,0,1-.38,1.52l-.65,2h-1L56.94,9.72H58L58.55,12q.19.79.32,1.51h0q.12-.59.39-1.5l.67-2.25h.85l.64,2.2q.23.81.38,1.55h0a14.83,14.83,0,0,1,.32-1.55l.57-2.2h1Z" style="fill: #fff"/>
      <path d="M69.2,14.43h-1v-2.7q0-1.25-.95-1.25a1,1,0,0,0-.76.34,1.22,1.22,0,0,0-.29.81v2.8h-1V11.07q0-.62,0-1.35H66l0,.74h0a1.51,1.51,0,0,1,.54-.57,1.77,1.77,0,0,1,.95-.27,1.5,1.5,0,0,1,1.1.43,2.07,2.07,0,0,1,.54,1.56Z" style="fill: #fff"/>
      <path d="M72.09,14.43H71V7.56h1Z" style="fill: #fff"/>
      <path d="M78.26,12a2.59,2.59,0,0,1-.62,1.78,2.22,2.22,0,0,1-1.73.72,2.1,2.1,0,0,1-1.65-.69,2.51,2.51,0,0,1-.61-1.74,2.56,2.56,0,0,1,.64-1.79A2.2,2.2,0,0,1,76,9.62a2.16,2.16,0,0,1,1.67.69A2.49,2.49,0,0,1,78.26,12Zm-1.09,0A2.13,2.13,0,0,0,76.89,11a1,1,0,0,0-.94-.56A1,1,0,0,0,75,11a2.16,2.16,0,0,0-.28,1.14A2.13,2.13,0,0,0,75,13.21a1.06,1.06,0,0,0,1,.56,1,1,0,0,0,.94-.57A2.11,2.11,0,0,0,77.17,12.07Z" style="fill: #fff"/>
      <path d="M83.33,14.43h-.94l-.08-.54h0a1.61,1.61,0,0,1-1.38.65,1.42,1.42,0,0,1-1.08-.43,1.34,1.34,0,0,1-.37-1,1.46,1.46,0,0,1,.72-1.32,3.75,3.75,0,0,1,2-.45V11.3q0-.93-1-.93a2.19,2.19,0,0,0-1.23.35L79.8,10a3,3,0,0,1,1.62-.41q1.85,0,1.85,1.95v1.74A7.36,7.36,0,0,0,83.33,14.43Zm-1.09-1.62v-.73q-1.73,0-1.73.95a.71.71,0,0,0,.2.55.73.73,0,0,0,.51.18,1.06,1.06,0,0,0,.64-.22.89.89,0,0,0,.38-.74Z" style="fill: #fff"/>
      <path d="M89.29,14.43h-.93l0-.76h0a1.57,1.57,0,0,1-1.51.86,1.77,1.77,0,0,1-1.42-.67,2.61,2.61,0,0,1-.56-1.74,2.73,2.73,0,0,1,.61-1.85,1.88,1.88,0,0,1,1.46-.66,1.41,1.41,0,0,1,1.33.64h0V7.56h1v5.61Q89.25,13.85,89.29,14.43Zm-1.09-2v-.79a1.54,1.54,0,0,0,0-.33,1.19,1.19,0,0,0-.38-.64,1,1,0,0,0-.7-.26,1.08,1.08,0,0,0-.92.47,2,2,0,0,0-.34,1.19,1.86,1.86,0,0,0,.32,1.14,1.08,1.08,0,0,0,.92.47,1,1,0,0,0,.83-.39A1.29,1.29,0,0,0,88.2,12.45Z" style="fill: #fff"/>
      <path d="M98.25,12a2.59,2.59,0,0,1-.62,1.78,2.21,2.21,0,0,1-1.73.72,2.11,2.11,0,0,1-1.65-.69,2.51,2.51,0,0,1-.61-1.74,2.56,2.56,0,0,1,.64-1.79A2.2,2.2,0,0,1,96,9.62a2.15,2.15,0,0,1,1.67.69A2.49,2.49,0,0,1,98.25,12Zm-1.09,0A2.13,2.13,0,0,0,96.88,11a1,1,0,0,0-.94-.56A1.05,1.05,0,0,0,95,11a2.16,2.16,0,0,0-.28,1.14A2.13,2.13,0,0,0,95,13.21a1.07,1.07,0,0,0,1.89,0A2.13,2.13,0,0,0,97.16,12.07Z" style="fill: #fff"/>
      <path d="M103.88,14.43h-1v-2.7q0-1.25-1-1.25a.94.94,0,0,0-.76.34,1.21,1.21,0,0,0-.29.81v2.8h-1V11.07q0-.62,0-1.35h.92l0,.74h0a1.53,1.53,0,0,1,.54-.57,1.77,1.77,0,0,1,1-.27,1.5,1.5,0,0,1,1.1.43,2.07,2.07,0,0,1,.54,1.56Z" style="fill: #fff"/>
      <path d="M110.94,10.5h-1.15v2.29c0,.58.21.87.61.87a1.85,1.85,0,0,0,.47,0l0,.8a2.35,2.35,0,0,1-.81.12,1.25,1.25,0,0,1-1-.38,1.85,1.85,0,0,1-.35-1.27V10.5h-.69V9.72h.69V8.86l1-.31V9.72h1.15v.79Z" style="fill: #fff"/>
      <path d="M116.48,14.43h-1V11.75q0-1.27-.95-1.27a1,1,0,0,0-1,.73,1.32,1.32,0,0,0,0,.38v2.84h-1V7.56h1V10.4h0a1.58,1.58,0,0,1,1.42-.77A1.46,1.46,0,0,1,116,10a2.15,2.15,0,0,1,.53,1.58Z" style="fill: #fff"/>
      <path d="M122.21,11.85a2.53,2.53,0,0,1,0,.48H119a1.37,1.37,0,0,0,.46,1.07,1.56,1.56,0,0,0,1,.33,3.47,3.47,0,0,0,1.27-.22l.16.73a4,4,0,0,1-1.58.29,2.28,2.28,0,0,1-1.72-.64,2.38,2.38,0,0,1-.62-1.73,2.7,2.7,0,0,1,.58-1.77,2,2,0,0,1,1.65-.76,1.75,1.75,0,0,1,1.54.76A2.52,2.52,0,0,1,122.21,11.85Zm-1-.27a1.41,1.41,0,0,0-.2-.81.92.92,0,0,0-.83-.44,1,1,0,0,0-.83.43,1.59,1.59,0,0,0-.31.81Z" style="fill: #fff"/>
    </g>
  </g>
</svg>
