<?xml version="1.0" encoding="UTF-8" standalone="no"?>
<!-- Created with Inkscape (http://www.inkscape.org/) -->

<svg
   xmlns:dc="http://purl.org/dc/elements/1.1/"
   xmlns:cc="http://creativecommons.org/ns#"
   xmlns:rdf="http://www.w3.org/1999/02/22-rdf-syntax-ns#"
   xmlns:svg="http://www.w3.org/2000/svg"
   xmlns="http://www.w3.org/2000/svg"
   xmlns:sodipodi="http://sodipodi.sourceforge.net/DTD/sodipodi-0.dtd"
   xmlns:inkscape="http://www.inkscape.org/namespaces/inkscape"
   id="svg3355"
   version="1.1"
   inkscape:version="0.91 r13725"
   xml:space="preserve"
   width="1000"
   height="1000"
   viewBox="0 0 1000 1000"
   sodipodi:docname="berlin-image-07.svg"><metadata
     id="metadata3361"><rdf:RDF><cc:Work
         rdf:about=""><dc:format>image/svg+xml</dc:format><dc:type
           rdf:resource="http://purl.org/dc/dcmitype/StillImage" /></cc:Work></rdf:RDF></metadata><defs
     id="defs3359"><radialGradient
       fx="0"
       fy="0"
       cx="0"
       cy="0"
       r="1"
       gradientUnits="userSpaceOnUse"
       gradientTransform="matrix(-1234.45,8612.92,8569.8,1228.27,5217.09,29.1498)"
       spreadMethod="pad"
       id="radialGradient3367"><stop
         style="stop-opacity:1;stop-color:#ffffff"
         offset="0"
         id="stop3369" /><stop
         style="stop-opacity:1;stop-color:#dfe0dd"
         offset="0.897561"
         id="stop3371" /><stop
         style="stop-opacity:1;stop-color:#bfc0be"
         offset="1"
         id="stop3373" /></radialGradient></defs><sodipodi:namedview
     pagecolor="#ffffff"
     bordercolor="#666666"
     borderopacity="1"
     objecttolerance="10"
     gridtolerance="10"
     guidetolerance="10"
     inkscape:pageopacity="0"
     inkscape:pageshadow="2"
     inkscape:window-width="1920"
     inkscape:window-height="1029"
     id="namedview3357"
     showgrid="false"
     inkscape:zoom="0.61589001"
     inkscape:cx="358.2062"
     inkscape:cy="448.10495"
     inkscape:window-x="0"
     inkscape:window-y="0"
     inkscape:window-maximized="1"
     inkscape:current-layer="g3365" /><g
     id="g3363"
     inkscape:groupmode="layer"
     inkscape:label="ink_ext_XXXXXX"
     transform="matrix(1.25,0,0,-1.25,0,1000)"><g
       id="g3365"
       transform="scale(0.1,0.1)"><path
         d="m 3072.69,226.711 c 0,-4.992 0.76,-9.281 2.31,-12.781 1.58,-3.551 3.73,-6.168 6.4,-7.981 2.7,-1.789 5.67,-2.711 8.87,-2.711 3.24,0 6.23,0.922 8.92,2.594 2.68,1.68 4.83,4.238 6.45,7.746 1.58,3.563 2.4,7.891 2.4,13.133 0,4.949 -0.82,9.16 -2.4,12.68 -1.62,3.57 -3.77,6.308 -6.5,8.179 -2.76,1.891 -5.75,2.801 -8.99,2.801 -3.4,0 -6.42,-0.973 -9.08,-2.84 -2.66,-1.949 -4.73,-4.75 -6.21,-8.34 -1.45,-3.57 -2.17,-7.73 -2.17,-12.48 z m 36.37,-27.16 0,1.871 c -2.48,-2.891 -4.94,-5.192 -7.35,-6.961 -2.42,-1.82 -5.04,-3.152 -7.87,-4.09 -2.83,-0.91 -5.92,-1.402 -9.26,-1.402 -4.41,0 -8.53,0.941 -12.28,2.844 -3.79,1.828 -7.05,4.527 -9.79,8.027 -2.77,3.398 -4.86,7.512 -6.28,12.23 -1.43,4.7 -2.13,9.801 -2.13,15.239 0,11.593 2.83,20.589 8.45,27.062 5.67,6.449 13.09,9.66 22.29,9.66 5.37,0 9.84,-0.922 13.49,-2.73 3.7,-1.852 7.25,-4.66 10.73,-8.391 l 0,27.262 c 0,3.789 0.76,6.617 2.28,8.609 1.51,1.981 3.67,2.91 6.43,2.91 2.81,0 4.98,-0.91 6.5,-2.711 1.53,-1.761 2.29,-4.41 2.29,-7.859 l 0,-81.57 c 0,-3.52 -0.84,-6.18 -2.44,-7.949 -1.66,-1.731 -3.73,-2.633 -6.35,-2.633 -2.52,0 -4.59,0.902 -6.23,2.742 -1.66,1.809 -2.48,4.461 -2.48,7.84"
         style="fill:#040606;fill-opacity:1;fill-rule:nonzero;stroke:none"
         id="path3377"
         inkscape:connector-curvature="0" /><path
         d="m 3160.58,232.52 33.52,0 c -0.41,6.382 -2.13,11.019 -5.14,14.191 -2.93,3.141 -6.86,4.73 -11.66,4.73 -4.59,0 -8.4,-1.589 -11.35,-4.75 -2.97,-3.211 -4.78,-7.902 -5.37,-14.171 z m 36.17,-10.489 -36.17,0 c 0.04,-4.199 0.88,-7.902 2.52,-11.09 1.66,-3.242 3.83,-5.66 6.6,-7.242 2.72,-1.668 5.72,-2.429 9.03,-2.429 2.22,0 4.23,0.21 6.07,0.73 1.82,0.512 3.55,1.391 5.31,2.449 1.72,1.082 3.3,2.293 4.77,3.59 1.42,1.242 3.28,2.973 5.58,5.109 0.96,0.801 2.31,1.262 4.09,1.262 1.91,0 3.39,-0.508 4.61,-1.539 1.15,-1.039 1.75,-2.57 1.75,-4.422 0,-1.707 -0.66,-3.648 -1.97,-5.89 -1.31,-2.258 -3.28,-4.399 -5.96,-6.43 -2.59,-2.039 -5.91,-3.738 -9.94,-5.16 -3.96,-1.317 -8.57,-2 -13.79,-2 -11.89,0 -21.09,3.422 -27.73,10.16 -6.58,6.773 -9.88,15.93 -9.88,27.582 0,5.469 0.82,10.559 2.44,15.199 1.66,4.672 4,8.731 7.13,12.039 3.12,3.352 6.95,5.891 11.52,7.731 4.57,1.769 9.63,2.59 15.21,2.59 7.21,0 13.4,-1.469 18.54,-4.551 5.19,-3.008 9.1,-6.969 11.68,-11.797 2.56,-4.801 3.83,-9.781 3.83,-14.793 0,-4.637 -1.33,-7.688 -3.99,-9.039 -2.67,-1.36 -6.44,-2.059 -11.25,-2.059"
         style="fill:#040606;fill-opacity:1;fill-rule:nonzero;stroke:none"
         id="path3379"
         inkscape:connector-curvature="0" /><path
         d="m 3287.12,213.148 c 0,-5.078 -1.23,-9.449 -3.69,-13.058 -2.5,-3.688 -6.17,-6.449 -11.03,-8.277 -4.85,-1.903 -10.74,-2.844 -17.7,-2.844 -6.62,0 -12.34,1.011 -17.11,3.051 -4.74,2.031 -8.24,4.589 -10.49,7.601 -2.24,3.07 -3.37,6.149 -3.37,9.219 0,2.031 0.7,3.75 2.16,5.191 1.45,1.461 3.25,2.18 5.51,2.18 1.93,0 3.4,-0.473 4.43,-1.43 1.06,-0.879 2.08,-2.281 3.01,-3.98 1.9,-3.289 4.16,-5.719 6.8,-7.36 2.64,-1.609 6.29,-2.449 10.82,-2.449 3.71,0 6.72,0.84 9.12,2.449 2.36,1.668 3.54,3.547 3.54,5.598 0,3.313 -1.23,5.731 -3.68,7.172 -2.48,1.5 -6.52,2.961 -12.18,4.281 -6.35,1.578 -11.55,3.199 -15.53,4.949 -4,1.77 -7.19,4.028 -9.61,6.887 -2.36,2.871 -3.57,6.363 -3.57,10.504 0,3.668 1.07,7.219 3.32,10.539 2.18,3.27 5.46,5.871 9.76,7.848 4.36,1.992 9.53,2.941 15.63,2.941 4.76,0 9.08,-0.469 12.93,-1.48 3.82,-0.961 6.99,-2.321 9.55,-4.02 2.56,-1.648 4.49,-3.508 5.82,-5.539 1.33,-2.019 1.99,-3.992 1.99,-5.941 0,-2.121 -0.7,-3.91 -2.11,-5.18 -1.44,-1.379 -3.48,-2.059 -6.07,-2.059 -1.92,0 -3.52,0.5 -4.87,1.61 -1.33,1.058 -2.85,2.691 -4.55,4.898 -1.42,1.781 -3.08,3.25 -4.96,4.332 -1.89,1.078 -4.47,1.629 -7.73,1.629 -3.36,0 -6.12,-0.762 -8.32,-2.18 -2.23,-1.398 -3.3,-3.179 -3.3,-5.3 0,-1.93 0.8,-3.5 2.4,-4.719 1.64,-1.27 3.81,-2.352 6.58,-3.129 2.73,-0.793 6.56,-1.773 11.41,-3 5.7,-1.402 10.43,-3.062 14.04,-4.98 3.65,-1.973 6.39,-4.262 8.26,-6.872 1.9,-2.691 2.79,-5.718 2.79,-9.082"
         style="fill:#040606;fill-opacity:1;fill-rule:nonzero;stroke:none"
         id="path3381"
         inkscape:connector-curvature="0" /><path
         d="m 3321.3,253.68 0,-53.469 c 0,-3.672 -0.88,-6.492 -2.63,-8.359 -1.76,-1.942 -3.99,-2.883 -6.72,-2.883 -2.72,0 -4.9,0.941 -6.6,2.922 -1.68,1.941 -2.52,4.718 -2.52,8.32 l 0,52.91 c 0,3.668 0.84,6.438 2.52,8.231 1.7,1.898 3.88,2.808 6.6,2.808 2.73,0 4.96,-0.91 6.72,-2.808 1.75,-1.793 2.63,-4.34 2.63,-7.672 z m -9.12,19.058 c -2.61,0 -4.8,0.864 -6.6,2.383 -1.85,1.609 -2.75,3.84 -2.75,6.731 0,2.617 0.92,4.82 2.81,6.488 1.87,1.672 4.02,2.539 6.54,2.539 2.37,0 4.48,-0.777 6.35,-2.301 1.86,-1.566 2.77,-3.808 2.77,-6.726 0,-2.852 -0.88,-5.063 -2.71,-6.692 -1.8,-1.558 -3.91,-2.422 -6.41,-2.422"
         style="fill:#040606;fill-opacity:1;fill-rule:nonzero;stroke:none"
         id="path3383"
         inkscape:connector-curvature="0" /><path
         d="m 3354.86,227.129 c 0,-7.449 1.64,-13.141 4.9,-16.938 3.28,-3.8 7.5,-5.781 12.72,-5.781 3.08,0 5.99,0.828 8.69,2.52 2.73,1.66 4.98,4.109 6.7,7.429 1.73,3.332 2.59,7.36 2.59,12.063 0,7.566 -1.7,13.43 -5,17.609 -3.34,4.231 -7.71,6.34 -13.12,6.34 -5.29,0 -9.55,-2.012 -12.7,-6.09 -3.2,-3.992 -4.78,-9.679 -4.78,-17.152 z m 53.59,23.512 0,-53.762 c 0,-6.098 -0.62,-11.41 -1.97,-15.809 -1.27,-4.48 -3.4,-8.05 -6.29,-11 -2.89,-2.84 -6.64,-5.031 -11.35,-6.461 -4.68,-1.347 -10.51,-2.058 -17.44,-2.058 -6.39,0 -12.09,0.879 -17.09,2.64 -5,1.809 -8.85,4.149 -11.62,6.95 -2.66,2.82 -4.02,5.699 -4.02,8.699 0,2.301 0.78,4.121 2.3,5.5 1.51,1.449 3.36,2.18 5.55,2.18 2.71,0 5.08,-1.211 7.11,-3.618 0.97,-1.211 2.01,-2.441 3.08,-3.703 1.1,-1.211 2.23,-2.289 3.54,-3.16 1.29,-0.898 2.85,-1.539 4.61,-1.969 1.81,-0.418 3.9,-0.648 6.25,-0.648 4.78,0 8.51,0.648 11.17,1.98 2.64,1.317 4.49,3.207 5.59,5.578 1.03,2.399 1.62,4.981 1.79,7.672 0.2,2.758 0.34,7.137 0.45,13.219 -2.85,-3.93 -6.15,-7.031 -9.9,-9.062 -3.71,-2.098 -8.13,-3.188 -13.3,-3.188 -6.17,0 -11.58,1.649 -16.21,4.801 -4.65,3.117 -8.22,7.578 -10.67,13.297 -2.52,5.691 -3.75,12.25 -3.75,19.75 0,5.492 0.77,10.492 2.27,15 1.52,4.453 3.65,8.242 6.48,11.301 2.8,3.101 6.04,5.371 9.71,6.992 3.65,1.488 7.66,2.269 12.03,2.269 5.24,0 9.79,-0.961 13.65,-3.011 3.81,-1.989 7.39,-5.141 10.69,-9.399 l 0,2.438 c 0,3.242 0.8,5.73 2.38,7.48 1.6,1.77 3.59,2.621 6.09,2.621 3.58,0 5.94,-1.16 7.13,-3.469 1.16,-2.332 1.74,-5.632 1.74,-10.05"
         style="fill:#040606;fill-opacity:1;fill-rule:nonzero;stroke:none"
         id="path3385"
         inkscape:connector-curvature="0" /><path
         d="m 3443.98,253.949 0,-2.238 c 3.26,4.301 6.8,7.449 10.66,9.43 3.89,2.031 8.3,3.019 13.32,3.019 4.89,0 9.26,-1.051 13.09,-3.14 3.83,-2.149 6.7,-5.141 8.61,-9.04 1.21,-2.25 2.01,-4.71 2.35,-7.281 0.37,-2.679 0.56,-5.98 0.56,-10.058 l 0,-34.43 c 0,-3.672 -0.86,-6.492 -2.54,-8.359 -1.7,-1.942 -3.92,-2.883 -6.62,-2.883 -2.77,0 -4.98,0.941 -6.72,2.922 -1.71,1.941 -2.57,4.718 -2.57,8.32 l 0,30.809 c 0,6.101 -0.84,10.8 -2.54,14.039 -1.68,3.203 -5.08,4.793 -10.14,4.793 -3.28,0 -6.31,-0.93 -9,-2.942 -2.74,-1.89 -4.71,-4.59 -5.96,-8.008 -0.9,-2.851 -1.37,-7.98 -1.37,-15.472 l 0,-23.219 c 0,-3.742 -0.86,-6.57 -2.6,-8.398 -1.75,-1.903 -3.98,-2.844 -6.73,-2.844 -2.68,0 -4.87,0.941 -6.59,2.922 -1.73,1.941 -2.55,4.718 -2.55,8.32 l 0,53.469 c 0,3.539 0.76,6.16 2.3,7.871 1.54,1.758 3.63,2.609 6.29,2.609 1.62,0 3.1,-0.371 4.39,-1.09 1.29,-0.84 2.39,-2 3.15,-3.511 0.82,-1.528 1.21,-3.418 1.21,-5.61"
         style="fill:#040606;fill-opacity:1;fill-rule:nonzero;stroke:none"
         id="path3387"
         inkscape:connector-curvature="0" /><path
         d="m 3526.46,232.52 33.52,0 c -0.45,6.382 -2.15,11.019 -5.12,14.191 -2.93,3.141 -6.86,4.73 -11.7,4.73 -4.59,0 -8.36,-1.589 -11.35,-4.75 -2.91,-3.211 -4.73,-7.902 -5.35,-14.171 z m 36.15,-10.489 -36.15,0 c 0.02,-4.199 0.84,-7.902 2.52,-11.09 1.64,-3.242 3.85,-5.66 6.56,-7.242 2.76,-1.668 5.78,-2.429 9.06,-2.429 2.21,0 4.24,0.21 6.06,0.73 1.85,0.512 3.59,1.391 5.37,2.449 1.68,1.082 3.28,2.293 4.69,3.59 1.48,1.242 3.32,2.973 5.62,5.109 0.96,0.801 2.33,1.262 4.1,1.262 1.9,0 3.4,-0.508 4.57,-1.539 1.22,-1.039 1.78,-2.57 1.78,-4.422 0,-1.707 -0.64,-3.648 -1.95,-5.89 -1.31,-2.258 -3.3,-4.399 -5.96,-6.43 -2.62,-2.039 -5.92,-3.738 -9.96,-5.16 -3.96,-1.317 -8.59,-2 -13.77,-2 -11.89,0 -21.11,3.422 -27.73,10.16 -6.57,6.773 -9.89,15.93 -9.89,27.582 0,5.469 0.82,10.559 2.45,15.199 1.6,4.672 4.02,8.731 7.12,12.039 3.13,3.352 6.94,5.891 11.51,7.731 4.55,1.769 9.63,2.59 15.19,2.59 7.19,0 13.44,-1.469 18.58,-4.551 5.17,-3.008 9.06,-6.969 11.68,-11.797 2.54,-4.801 3.81,-9.781 3.81,-14.793 0,-4.637 -1.35,-7.688 -4.01,-9.039 -2.63,-1.36 -6.36,-2.059 -11.25,-2.059"
         style="fill:#040606;fill-opacity:1;fill-rule:nonzero;stroke:none"
         id="path3389"
         inkscape:connector-curvature="0" /><path
         d="m 3607.79,226.711 c 0,-4.992 0.78,-9.281 2.32,-12.781 1.56,-3.551 3.71,-6.168 6.41,-7.981 2.71,-1.789 5.66,-2.711 8.87,-2.711 3.26,0 6.23,0.922 8.92,2.594 2.64,1.68 4.81,4.238 6.41,7.746 1.62,3.563 2.44,7.891 2.44,13.133 0,4.949 -0.82,9.16 -2.44,12.68 -1.6,3.57 -3.77,6.308 -6.51,8.179 -2.71,1.891 -5.72,2.801 -8.96,2.801 -3.4,0 -6.41,-0.973 -9.1,-2.84 -2.66,-1.949 -4.71,-4.75 -6.15,-8.34 -1.49,-3.57 -2.21,-7.73 -2.21,-12.48 z m 36.38,-27.16 0,1.871 c -2.51,-2.891 -4.94,-5.192 -7.36,-6.961 -2.44,-1.82 -5.08,-3.152 -7.85,-4.09 -2.83,-0.91 -5.92,-1.402 -9.26,-1.402 -4.43,0 -8.53,0.941 -12.32,2.844 -3.77,1.828 -7.01,4.527 -9.79,8.027 -2.75,3.398 -4.82,7.512 -6.25,12.23 -1.44,4.7 -2.15,9.801 -2.15,15.239 0,11.593 2.84,20.589 8.46,27.062 5.68,6.449 13.15,9.66 22.33,9.66 5.33,0 9.82,-0.922 13.45,-2.73 3.67,-1.852 7.25,-4.66 10.74,-8.391 l 0,27.262 c 0,3.789 0.75,6.617 2.27,8.609 1.5,1.981 3.67,2.91 6.47,2.91 2.81,0 4.94,-0.91 6.48,-2.711 1.48,-1.761 2.27,-4.41 2.27,-7.859 l 0,-81.57 c 0,-3.52 -0.83,-6.18 -2.47,-7.949 -1.6,-1.731 -3.75,-2.633 -6.28,-2.633 -2.56,0 -4.61,0.902 -6.29,2.742 -1.62,1.809 -2.45,4.461 -2.45,7.84"
         style="fill:#040606;fill-opacity:1;fill-rule:nonzero;stroke:none"
         id="path3391"
         inkscape:connector-curvature="0" /><path
         d="m 3732.89,226.18 c 0,-7.379 1.68,-13.032 5.05,-16.981 3.34,-3.961 7.74,-5.961 13.23,-5.961 4.63,0 8.65,2.043 12.01,6.082 3.42,4.082 5.08,9.852 5.08,17.391 0,4.918 -0.73,9.07 -2.11,12.629 -1.41,3.492 -3.42,6.242 -5.98,8.191 -2.56,1.867 -5.59,2.84 -9,2.84 -3.52,0 -6.64,-0.973 -9.42,-2.84 -2.73,-1.949 -4.94,-4.75 -6.54,-8.402 -1.54,-3.66 -2.32,-7.969 -2.32,-12.949 z m -0.88,54.941 0,-28.211 c 3.47,3.551 7.01,6.332 10.6,8.231 3.67,1.968 8.11,2.89 13.44,2.89 6.13,0 11.54,-1.461 16.15,-4.351 4.63,-2.891 8.24,-7.141 10.74,-12.731 2.62,-5.488 3.87,-12.027 3.87,-19.64 0,-5.59 -0.72,-10.727 -2.11,-15.379 -1.44,-4.66 -3.51,-8.77 -6.23,-12.149 -2.69,-3.441 -5.99,-6.14 -9.86,-7.968 -3.87,-1.903 -8.11,-2.844 -12.76,-2.844 -2.89,0 -5.52,0.363 -8.04,1.011 -2.48,0.641 -4.63,1.602 -6.43,2.719 -1.74,1.11 -3.22,2.223 -4.49,3.371 -1.21,1.211 -2.87,2.981 -4.88,5.352 l 0,-1.871 c 0,-3.481 -0.86,-6.121 -2.54,-7.949 -1.64,-1.731 -3.75,-2.633 -6.39,-2.633 -2.56,0 -4.69,0.902 -6.25,2.633 -1.56,1.828 -2.32,4.468 -2.32,7.949 l 0,80.781 c 0,3.719 0.74,6.547 2.26,8.469 1.53,1.961 3.62,2.89 6.31,2.89 2.87,0 5.08,-0.91 6.62,-2.769 1.51,-1.813 2.31,-4.453 2.31,-7.801"
         style="fill:#040606;fill-opacity:1;fill-rule:nonzero;stroke:none"
         id="path3393"
         inkscape:connector-curvature="0" /><path
         d="m 3816.91,186.691 1.68,4.141 -22.77,57.289 c -1.39,3.32 -2.09,5.641 -2.09,7.18 0,1.551 0.43,3.058 1.23,4.418 0.8,1.351 1.89,2.402 3.34,3.23 1.44,0.813 2.89,1.211 4.45,1.211 2.67,0 4.65,-0.851 6.01,-2.48 1.37,-1.75 2.56,-4.168 3.6,-7.309 l 15.68,-45.531 14.81,42.351 c 1.19,3.438 2.28,6.11 3.18,8.051 0.94,1.899 1.99,3.227 3.05,3.93 1.05,0.648 2.54,0.988 4.51,0.988 1.37,0 2.73,-0.371 4,-1.09 1.31,-0.781 2.31,-1.769 2.97,-3.039 0.76,-1.269 1.08,-2.582 1.08,-3.98 -0.18,-0.84 -0.49,-2.02 -0.86,-3.641 -0.41,-1.59 -0.94,-3.23 -1.51,-4.84 l -24.14,-63.109 c -2.11,-5.582 -4.1,-9.941 -6.13,-13.07 -1.93,-3.211 -4.57,-5.571 -7.85,-7.309 -3.3,-1.652 -7.72,-2.531 -13.26,-2.531 -5.41,0 -9.48,0.601 -12.17,1.73 -2.74,1.207 -4.08,3.321 -4.08,6.461 0,2.129 0.62,3.75 1.91,4.91 1.29,1.18 3.2,1.739 5.74,1.739 0.98,0 1.96,-0.141 2.91,-0.399 1.17,-0.293 2.17,-0.371 3.07,-0.371 2.09,0 3.79,0.281 5,0.891 1.23,0.64 2.3,1.738 3.26,3.308 0.98,1.551 2.13,3.852 3.38,6.871"
         style="fill:#040606;fill-opacity:1;fill-rule:nonzero;stroke:none"
         id="path3395"
         inkscape:connector-curvature="0" /><path
         d="m 4159.24,262.57 4.39,0 0,5.539 c 0,5.782 0.73,10.403 2.27,13.762 1.4,3.438 3.9,5.891 7.42,7.461 3.5,1.598 8.26,2.359 14.43,2.359 10.75,0 16.18,-2.652 16.18,-7.941 0,-1.711 -0.61,-3.16 -1.74,-4.418 -1.12,-1.223 -2.42,-1.832 -3.97,-1.832 -0.76,0 -2.01,0.141 -3.77,0.449 -1.72,0.242 -3.22,0.371 -4.43,0.371 -3.38,0 -5.51,-0.98 -6.47,-2.922 -0.93,-2.007 -1.4,-4.808 -1.4,-8.41 l 0,-4.418 4.55,0 c 7.05,0 10.57,-2.148 10.57,-6.429 0,-2.993 -0.9,-4.891 -2.82,-5.731 -1.87,-0.789 -4.43,-1.23 -7.75,-1.23 l -4.55,0 0,-48.969 c 0,-3.621 -0.88,-6.402 -2.58,-8.34 -1.78,-1.961 -4,-2.902 -6.78,-2.902 -2.61,0 -4.8,0.941 -6.56,2.902 -1.72,1.938 -2.6,4.719 -2.6,8.34 l 0,48.969 -5.09,0 c -2.76,0 -4.83,0.609 -6.33,1.922 -1.53,1.199 -2.25,2.82 -2.25,4.828 0,4.429 3.11,6.64 9.28,6.64"
         style="fill:#040606;fill-opacity:1;fill-rule:nonzero;stroke:none"
         id="path3397"
         inkscape:connector-curvature="0" /><path
         d="m 4225.33,215.719 0,-15.508 c 0,-3.742 -0.88,-6.57 -2.62,-8.398 -1.79,-1.903 -4.04,-2.844 -6.75,-2.844 -2.62,0 -4.85,0.941 -6.53,2.883 -1.77,1.867 -2.61,4.687 -2.61,8.359 l 0,51.5 c 0,8.32 2.97,12.449 9,12.449 3.05,0 5.29,-0.949 6.62,-2.898 1.39,-1.91 2.13,-4.821 2.27,-8.582 2.22,3.761 4.49,6.672 6.81,8.582 2.33,1.949 5.41,2.898 9.32,2.898 3.87,0 7.64,-0.949 11.31,-2.898 3.67,-1.91 5.47,-4.512 5.47,-7.684 0,-2.328 -0.74,-4.117 -2.31,-5.656 -1.56,-1.422 -3.22,-2.141 -5.08,-2.141 -0.66,0 -2.28,0.391 -4.88,1.168 -2.6,0.91 -4.86,1.313 -6.91,1.313 -2.68,0 -4.9,-0.692 -6.62,-2.16 -1.72,-1.403 -3.01,-3.512 -4.03,-6.313 -0.93,-2.789 -1.6,-6.16 -1.97,-10.008 -0.35,-3.84 -0.49,-8.562 -0.49,-14.062"
         style="fill:#040606;fill-opacity:1;fill-rule:nonzero;stroke:none"
         id="path3399"
         inkscape:connector-curvature="0" /><path
         d="m 4279.73,232.52 33.55,0 c -0.49,6.382 -2.11,11.019 -5.06,14.191 -3.02,3.141 -6.91,4.73 -11.74,4.73 -4.62,0 -8.37,-1.589 -11.38,-4.75 -2.93,-3.211 -4.71,-7.902 -5.37,-14.171 z m 36.19,-10.489 -36.19,0 c 0.09,-4.199 0.9,-7.902 2.56,-11.09 1.62,-3.242 3.8,-5.66 6.58,-7.242 2.71,-1.668 5.72,-2.429 9,-2.429 2.23,0 4.28,0.21 6.09,0.73 1.86,0.512 3.6,1.391 5.32,2.449 1.76,1.082 3.3,2.293 4.74,3.59 1.47,1.242 3.36,2.973 5.67,5.109 0.94,0.801 2.3,1.262 4.06,1.262 1.89,0 3.42,-0.508 4.55,-1.539 1.15,-1.039 1.8,-2.57 1.8,-4.422 0,-1.707 -0.65,-3.648 -1.97,-5.89 -1.35,-2.258 -3.33,-4.399 -5.88,-6.43 -2.66,-2.039 -6.02,-3.738 -10.02,-5.16 -4.01,-1.317 -8.62,-2 -13.77,-2 -11.94,0 -21.16,3.422 -27.74,10.16 -6.6,6.773 -9.88,15.93 -9.88,27.582 0,5.469 0.8,10.559 2.46,15.199 1.58,4.672 3.97,8.731 7.09,12.039 3.11,3.352 6.95,5.891 11.54,7.731 4.52,1.769 9.59,2.59 15.2,2.59 7.21,0 13.34,-1.469 18.53,-4.551 5.2,-3.008 9.09,-6.969 11.66,-11.797 2.56,-4.801 3.89,-9.781 3.89,-14.793 0,-4.637 -1.33,-7.688 -4.04,-9.039 -2.7,-1.36 -6.37,-2.059 -11.25,-2.059"
         style="fill:#040606;fill-opacity:1;fill-rule:nonzero;stroke:none"
         id="path3401"
         inkscape:connector-curvature="0" /><path
         d="m 4362.19,232.52 33.53,0 c -0.45,6.382 -2.15,11.019 -5.09,14.191 -2.95,3.141 -6.82,4.73 -11.67,4.73 -4.62,0 -8.37,-1.589 -11.36,-4.75 -2.91,-3.211 -4.79,-7.902 -5.41,-14.171 z m 36.21,-10.489 -36.21,0 c 0.08,-4.199 0.92,-7.902 2.56,-11.09 1.64,-3.242 3.86,-5.66 6.56,-7.242 2.75,-1.668 5.78,-2.429 9.06,-2.429 2.21,0 4.18,0.21 6.04,0.73 1.83,0.512 3.67,1.391 5.31,2.449 1.72,1.082 3.3,2.293 4.76,3.59 1.45,1.242 3.38,2.973 5.65,5.109 0.96,0.801 2.28,1.262 4.06,1.262 1.9,0 3.46,-0.508 4.61,-1.539 1.15,-1.039 1.74,-2.57 1.74,-4.422 0,-1.707 -0.65,-3.648 -1.91,-5.89 -1.33,-2.258 -3.33,-4.399 -5.98,-6.43 -2.62,-2.039 -5.96,-3.738 -9.94,-5.16 -4.01,-1.317 -8.62,-2 -13.79,-2 -11.86,0 -21.12,3.422 -27.72,10.16 -6.6,6.773 -9.88,15.93 -9.88,27.582 0,5.469 0.82,10.559 2.4,15.199 1.64,4.672 4.01,8.731 7.13,12.039 3.13,3.352 6.95,5.891 11.54,7.731 4.57,1.769 9.61,2.59 15.16,2.59 7.21,0 13.44,-1.469 18.63,-4.551 5.14,-3.008 9.03,-6.969 11.62,-11.797 2.58,-4.801 3.83,-9.781 3.83,-14.793 0,-4.637 -1.31,-7.688 -3.98,-9.039 -2.68,-1.36 -6.39,-2.059 -11.25,-2.059"
         style="fill:#040606;fill-opacity:1;fill-rule:nonzero;stroke:none"
         id="path3403"
         inkscape:connector-curvature="0" /><path
         d="m 4480.74,226.898 c 0,4.915 -0.74,9.114 -2.24,12.563 -1.51,3.539 -3.56,6.238 -6.18,8.109 -2.63,1.891 -5.56,2.801 -8.8,2.801 -5.06,0 -9.38,-2.012 -12.91,-6.09 -3.48,-3.992 -5.28,-9.922 -5.28,-17.711 0,-7.32 1.76,-13.058 5.28,-17.16 3.43,-4.129 7.75,-6.172 12.91,-6.172 3.12,0 5.91,0.922 8.51,2.711 2.66,1.813 4.75,4.43 6.33,8 1.56,3.633 2.38,7.922 2.38,12.949 z m -36.27,26.864 0,-2.141 c 3.54,4.258 7.13,7.41 10.86,9.399 3.75,2.05 7.99,3.011 12.76,3.011 5.66,0 10.89,-1.461 15.7,-4.371 4.78,-2.949 8.55,-7.25 11.37,-12.871 2.75,-5.609 4.14,-12.309 4.14,-20.078 0,-5.672 -0.82,-10.879 -2.42,-15.672 -1.59,-4.769 -3.79,-8.758 -6.61,-11.988 -2.79,-3.231 -6.07,-5.731 -9.88,-7.469 -3.81,-1.742 -7.93,-2.613 -12.3,-2.613 -5.32,0 -9.75,1.09 -13.32,3.191 -3.64,2.129 -7.06,5.238 -10.3,9.32 l 0,-27.738 c 0,-8.113 -3.01,-12.191 -8.83,-12.191 -3.53,0 -5.82,1.058 -6.97,3.129 -1.13,2.121 -1.66,5.199 -1.66,9.199 l 0,79.801 c 0,3.539 0.76,6.16 2.29,7.871 1.52,1.758 3.63,2.609 6.34,2.609 2.6,0 4.71,-0.851 6.35,-2.672 1.68,-1.769 2.48,-4.336 2.48,-7.726"
         style="fill:#040606;fill-opacity:1;fill-rule:nonzero;stroke:none"
         id="path3405"
         inkscape:connector-curvature="0" /><path
         d="m 4532.66,253.68 0,-53.469 c 0,-3.672 -0.9,-6.492 -2.68,-8.359 -1.74,-1.942 -3.93,-2.883 -6.7,-2.883 -2.71,0 -4.9,0.941 -6.58,2.922 -1.68,1.941 -2.56,4.718 -2.56,8.32 l 0,52.91 c 0,3.668 0.88,6.438 2.56,8.231 1.68,1.898 3.87,2.808 6.58,2.808 2.77,0 4.96,-0.91 6.7,-2.808 1.78,-1.793 2.68,-4.34 2.68,-7.672 z m -9.11,19.058 c -2.63,0 -4.86,0.864 -6.66,2.383 -1.79,1.609 -2.75,3.84 -2.75,6.731 0,2.617 0.96,4.82 2.85,6.488 1.82,1.672 4.03,2.539 6.56,2.539 2.35,0 4.48,-0.777 6.33,-2.301 1.84,-1.566 2.78,-3.808 2.78,-6.726 0,-2.852 -0.9,-5.063 -2.74,-6.692 -1.79,-1.558 -3.96,-2.422 -6.37,-2.422"
         style="fill:#040606;fill-opacity:1;fill-rule:nonzero;stroke:none"
         id="path3407"
         inkscape:connector-curvature="0" /><path
         d="m 4597.83,197.441 -16.35,26.848 -10.03,-9.508 0,-14.691 c 0,-3.551 -0.88,-6.281 -2.74,-8.219 -1.93,-1.961 -4.12,-2.902 -6.48,-2.902 -2.89,0 -5.08,0.941 -6.7,2.883 -1.7,1.867 -2.46,4.687 -2.46,8.359 l 0,78.848 c 0,4.121 0.74,7.261 2.3,9.39 1.64,2.16 3.91,3.242 6.86,3.242 2.83,0 5.07,-0.929 6.75,-2.91 1.66,-1.992 2.47,-4.82 2.47,-8.609 l 0,-44.863 20.84,21.843 c 2.59,2.688 4.53,4.567 5.85,5.528 1.37,1.011 3.03,1.48 4.97,1.48 2.32,0 4.21,-0.68 5.8,-2.219 1.5,-1.449 2.28,-3.281 2.28,-5.5 0,-2.722 -2.52,-6.312 -7.52,-10.82 l -9.86,-9.012 18.98,-29.82 c 1.45,-2.23 2.44,-3.898 3.05,-5.039 0.57,-1.129 0.9,-2.27 0.9,-3.258 0,-2.961 -0.78,-5.262 -2.38,-7.004 -1.63,-1.648 -3.79,-2.519 -6.37,-2.519 -2.27,0 -3.97,0.64 -5.24,1.863 -1.19,1.188 -2.83,3.43 -4.92,6.609"
         style="fill:#040606;fill-opacity:1;fill-rule:nonzero;stroke:none"
         id="path3409"
         inkscape:connector-curvature="0" /><path
         d="m 4643.57,188.969 c -2.79,0 -5.21,0.902 -7.22,2.742 -2.05,1.789 -3.13,4.32 -3.13,7.57 0,2.75 1.02,5.129 2.97,7.11 1.95,1.98 4.4,2.988 7.19,2.988 2.83,0 5.27,-1.008 7.28,-2.949 2.02,-1.981 3.03,-4.328 3.03,-7.149 0,-3.211 -1.01,-5.761 -3.03,-7.57 -2.01,-1.84 -4.35,-2.742 -7.09,-2.742"
         style="fill:#040606;fill-opacity:1;fill-rule:nonzero;stroke:none"
         id="path3411"
         inkscape:connector-curvature="0" /><path
         d="m 4741.11,211.879 c 0,-2.289 -0.68,-4.738 -2.09,-7.359 -1.36,-2.68 -3.47,-5.149 -6.27,-7.52 -2.83,-2.359 -6.42,-4.289 -10.68,-5.691 -4.3,-1.469 -9.18,-2.188 -14.51,-2.188 -11.43,0 -20.35,3.328 -26.76,10 -6.41,6.649 -9.63,15.57 -9.63,26.781 0,7.598 1.47,14.317 4.4,20.118 2.91,5.839 7.2,10.339 12.77,13.5 5.57,3.191 12.17,4.75 19.9,4.75 4.77,0 9.16,-0.68 13.17,-2.09 4.02,-1.36 7.4,-3.149 10.19,-5.391 2.78,-2.187 4.88,-4.547 6.35,-7.059 1.48,-2.55 2.21,-4.859 2.21,-7.039 0,-2.25 -0.82,-4.113 -2.5,-5.609 -1.64,-1.543 -3.64,-2.293 -5.98,-2.293 -1.54,0 -2.85,0.41 -3.83,1.16 -1.05,0.793 -2.15,2.063 -3.42,3.84 -2.22,3.43 -4.61,6.031 -7.09,7.742 -2.46,1.688 -5.6,2.551 -9.37,2.551 -5.43,0 -9.84,-2.16 -13.22,-6.402 -3.32,-4.289 -5.02,-10.102 -5.02,-17.5 0,-3.489 0.43,-6.692 1.32,-9.598 0.81,-2.891 2.09,-5.371 3.7,-7.492 1.6,-1.988 3.61,-3.598 5.88,-4.641 2.3,-1.058 4.88,-1.578 7.61,-1.578 3.67,0 6.88,0.891 9.53,2.539 2.62,1.809 4.96,4.352 7,7.899 1.15,2.07 2.36,3.703 3.65,4.812 1.33,1.238 2.91,1.789 4.8,1.789 2.31,0 4.12,-0.801 5.65,-2.539 1.46,-1.75 2.24,-3.551 2.24,-5.492"
         style="fill:#040606;fill-opacity:1;fill-rule:nonzero;stroke:none"
         id="path3413"
         inkscape:connector-curvature="0" /><path
         d="m 4807.93,226.57 c 0,7.551 -1.7,13.41 -5,17.629 -3.3,4.18 -7.73,6.301 -13.4,6.301 -3.57,0 -6.76,-0.91 -9.55,-2.789 -2.73,-1.891 -4.86,-4.68 -6.37,-8.32 -1.48,-3.661 -2.22,-7.93 -2.22,-12.821 0,-4.828 0.74,-9.05 2.22,-12.64 1.45,-3.641 3.58,-6.34 6.29,-8.301 2.74,-1.93 5.96,-2.828 9.63,-2.828 5.67,0 10.1,2.027 13.4,6.238 3.3,4.27 5,10.133 5,17.531 z m 18.53,0 c 0,-5.461 -0.78,-10.55 -2.53,-15.191 -1.72,-4.699 -4.22,-8.688 -7.48,-12.008 -3.25,-3.34 -7.09,-5.941 -11.65,-7.769 -4.53,-1.731 -9.6,-2.633 -15.27,-2.633 -5.53,0 -10.6,0.902 -15.08,2.742 -4.43,1.789 -8.38,4.359 -11.66,7.687 -3.2,3.434 -5.76,7.391 -7.42,11.981 -1.66,4.562 -2.54,9.66 -2.54,15.191 0,5.61 0.88,10.7 2.64,15.43 1.66,4.582 4.12,8.609 7.28,11.891 3.25,3.308 7.15,5.828 11.7,7.597 4.57,1.821 9.57,2.672 15.08,2.672 5.67,0 10.7,-0.91 15.27,-2.699 4.58,-1.781 8.46,-4.359 11.72,-7.742 3.28,-3.321 5.71,-7.27 7.41,-11.899 1.75,-4.621 2.53,-9.711 2.53,-15.25"
         style="fill:#040606;fill-opacity:1;fill-rule:nonzero;stroke:none"
         id="path3415"
         inkscape:connector-curvature="0" /><path
         d="m 4902.6,225.25 0,-24.621 c 0,-3.887 -0.88,-6.797 -2.62,-8.738 -1.8,-1.981 -4.12,-2.922 -7.01,-2.922 -2.79,0 -5.06,0.941 -6.82,2.922 -1.74,1.941 -2.63,4.851 -2.63,8.738 l 0,29.461 c 0,4.699 -0.14,8.23 -0.43,10.871 -0.32,2.559 -1.18,4.687 -2.6,6.309 -1.39,1.679 -3.6,2.46 -6.64,2.46 -6.02,0 -10.04,-2.05 -11.94,-6.21 -1.91,-4.161 -2.89,-10.129 -2.89,-17.872 l 0,-25.019 c 0,-3.84 -0.86,-6.719 -2.61,-8.699 -1.74,-1.95 -4.05,-2.961 -6.88,-2.961 -2.77,0 -5.06,1.011 -6.89,2.961 -1.78,1.98 -2.66,4.859 -2.66,8.699 l 0,52.949 c 0,3.434 0.76,6.102 2.38,7.883 1.64,1.789 3.75,2.699 6.33,2.699 2.58,0 4.69,-0.851 6.33,-2.48 1.76,-1.75 2.58,-4.11 2.58,-7.051 l 0,-1.719 c 3.2,3.801 6.64,6.61 10.31,8.41 3.63,1.789 7.73,2.711 12.17,2.711 4.69,0 8.67,-0.922 11.99,-2.769 3.38,-1.852 6.11,-4.66 8.28,-8.352 3.11,3.731 6.49,6.539 10.06,8.391 3.54,1.808 7.5,2.73 11.84,2.73 5.05,0 9.43,-0.961 13.08,-2.961 3.67,-2.039 6.37,-4.859 8.19,-8.531 1.62,-3.359 2.38,-8.598 2.38,-15.797 l 0,-36.113 c 0,-3.887 -0.92,-6.797 -2.68,-8.738 -1.72,-1.981 -4.02,-2.922 -6.93,-2.922 -2.77,0 -5.12,1.011 -6.86,2.961 -1.83,1.98 -2.71,4.859 -2.71,8.699 l 0,31.133 c 0,3.929 -0.14,7.14 -0.51,9.547 -0.39,2.371 -1.25,4.39 -2.71,5.992 -1.53,1.648 -3.77,2.429 -6.8,2.429 -2.46,0 -4.73,-0.742 -6.93,-2.16 -2.17,-1.398 -3.95,-3.371 -5.16,-5.859 -1.35,-3.07 -2.01,-8.582 -2.01,-16.461"
         style="fill:#040606;fill-opacity:1;fill-rule:nonzero;stroke:none"
         id="path3417"
         inkscape:connector-curvature="0" /><path
         d="m 4013.44,311.871 c -0.35,1.16 -0.73,2.371 -1.12,3.527 6.16,0.582 10.36,8.051 7.35,13.563 -2.79,6.211 -12.37,6.969 -16.06,1.269 -3.95,-5.05 -0.86,-13.011 5.17,-14.628 0.41,-1.243 0.73,-2.571 1.12,-3.821 -9.3,-0.672 -18.79,-2.722 -26.64,-8.019 0.82,-2.203 1.62,-4.563 2.42,-6.813 15.8,6.922 33.42,5.43 50.06,3.762 0.59,2.187 1.14,4.398 1.68,6.59 -7.54,3.359 -15.78,4.609 -23.98,4.57"
         style="fill:#040606;fill-opacity:1;fill-rule:nonzero;stroke:none"
         id="path3419"
         inkscape:connector-curvature="0" /><path
         d="m 4107.23,286.43 c -2.48,-1.25 -2.95,-4.301 -2.84,-6.809 -2.77,-2.68 -1.44,-6.789 -1.73,-10.133 -0.63,-1.898 -2.89,-2.136 -4.48,-2.867 -2.18,3.371 -4.49,6.539 -7.46,9.27 l 0.06,0.148 c -3.2,2.961 -6.64,5.672 -10.25,8.043 -2.89,-3.102 -5.96,-6.203 -8.75,-9.41 5.52,-6.113 10.66,-12.731 15.19,-19.582 3.15,-5.262 5.63,-10.848 7.83,-16.559 4.67,2.43 9.32,4.938 14.01,7.379 -2.48,5.711 -5.29,11.309 -8.3,16.77 2.05,1.109 4.86,2.179 5.15,4.91 0.24,3 -0.39,6.23 1.35,8.859 3.65,-2.34 9.16,0.281 9.2,4.672 0.49,4.609 -5.23,7.859 -8.98,5.309"
         style="fill:#040606;fill-opacity:1;fill-rule:nonzero;stroke:none"
         id="path3421"
         inkscape:connector-curvature="0" /><path
         d="m 4070.49,248.512 c -1.13,-7.66 -8.42,-14.082 -16.21,-13.59 -4.51,-0.391 -8.85,1.726 -11.92,4.93 -2.2,2.738 -4,5.847 -4.31,9.488 -1.06,7.699 4.39,15.699 11.97,17.531 3.32,0.938 6.84,0.418 10.14,-0.383 7.09,-2.488 11.75,-10.558 10.33,-17.976 z m -68.52,-16.141 c -3.07,-4.422 -7.48,-7.859 -12.52,-9.789 -9.53,-3.551 -21.08,-1.113 -27.93,6.449 -4.77,5.258 -7.6,12.309 -7.09,19.481 0.39,8.898 5.9,17.218 13.73,21.379 5.94,3.211 13.12,3.781 19.67,1.961 2.71,-0.672 5.19,-1.961 7.54,-3.5 4.84,-3.403 8.41,-8.43 10.05,-14.141 2.23,-7.301 0.79,-15.492 -3.45,-21.84 z m 79.89,20.039 c -6.1,10.141 -12.7,20.231 -21.7,28 -10.34,9.141 -23.83,15.309 -37.84,15.238 -17.66,0.161 -35.57,-2.628 -51.84,-9.718 -15.33,-6.739 -28.69,-18.809 -35.43,-34.309 -6.52,-13.922 -6.4,-30.031 -3.47,-44.879 16.25,-4.051 32.79,-7.672 49.53,-8.433 16.58,-0.52 33.19,-0.911 49.65,1.363 22.58,3.019 44.73,10.117 64.45,21.68 0,0 -2.75,14.847 -13.35,31.058"
         style="fill:#040606;fill-opacity:1;fill-rule:nonzero;stroke:none"
         id="path3423"
         inkscape:connector-curvature="0" /><path
         d="m 3935.25,275.031 c -6.6,-3.98 -12.03,-9.609 -16.56,-15.789 -1.33,2.477 -1.72,5.387 -3.44,7.598 -0.98,1.281 -2.75,0.75 -4.1,0.75 -1.78,-0.149 -3.48,0.32 -5.14,0.812 1.95,2.7 1.43,6.879 -1.52,8.688 -3.17,2.242 -8.07,0.289 -8.93,-3.488 -1.31,-4.114 3.07,-8.262 7.11,-7.161 2.17,-3.191 6.06,-2.679 9.36,-2.769 1.46,-2.602 2.61,-5.41 4.53,-7.742 -3.56,-6.981 -5.57,-14.809 -5.74,-22.629 4.57,-1.91 9.14,-3.852 13.67,-5.762 0.21,4.981 0.82,9.883 1.54,14.703 1.52,10.668 7.66,19.86 14.94,27.449 -1.8,1.899 -3.83,3.547 -5.72,5.34"
         style="fill:#040606;fill-opacity:1;fill-rule:nonzero;stroke:none"
         id="path3425"
         inkscape:connector-curvature="0" /><path
         d="m 4041.56,195.051 c -16.77,-3.66 -34.05,-4.75 -51.17,-4 -11.59,0.551 -23.19,1.66 -34.48,4.168 -8.02,1.64 -15.9,3.972 -23.83,6.242 1.29,-10.07 5.38,-19.719 11.2,-28.039 6.87,-9.66 16.07,-18.5 27.5,-22.09 8.9,-2.43 19.53,-5.461 37.89,-5.141 15.14,0.239 30.02,2.161 43.3,7.86 8.58,3.66 16.58,8.668 23.52,14.969 5.96,5.632 10.64,12.652 13.85,20.14 3.12,7.141 5.95,19.879 5.66,26.461 -16.43,-9.351 -34.73,-17.461 -53.44,-20.57"
         style="fill:#040606;fill-opacity:1;fill-rule:nonzero;stroke:none"
         id="path3427"
         inkscape:connector-curvature="0" /><path
         d="m 7196.72,4336.39 -114.04,0 0,160.92 0.01,0.14 114.02,0 0.01,-0.14 0,-160.92 z m -57.02,217.95 c 29.45,0 53.41,-22.43 56.42,-51.06 l -112.84,0 c 3.01,28.63 26.97,51.06 56.42,51.06 z m -165.18,-235.9 c 0,-10.45 -8.48,-18.93 -18.92,-18.93 -10.46,0 -18.92,8.48 -18.92,18.93 l 0,212.5 c 0,10.45 8.46,18.92 18.92,18.92 10.44,0 18.92,-8.47 18.92,-18.92 l 0,-212.5 z m -91.7,0 c 0,-10.45 -8.47,-18.93 -18.91,-18.93 -10.46,0 -18.93,8.48 -18.93,18.93 l 0,212.5 c 0,10.45 8.47,18.92 18.93,18.92 10.44,0 18.91,-8.47 18.91,-18.92 l 0,-212.5 z m -91.71,0 c 0,-10.45 -8.45,-18.93 -18.91,-18.93 -10.45,0 -18.93,8.48 -18.93,18.93 l 0,212.5 c 0,10.45 8.48,18.92 18.93,18.92 10.46,0 18.91,-8.47 18.91,-18.92 l 0,-212.5 z m -91.69,0 c 0,-10.45 -8.46,-18.93 -18.92,-18.93 -10.45,0 -18.92,8.48 -18.92,18.93 l 0,212.5 c 0,10.45 8.47,18.92 18.92,18.92 10.46,0 18.92,-8.47 18.92,-18.92 l 0,-212.5 z m -231.25,-69.87 c 0,-15.27 -12.4,-27.65 -27.66,-27.65 -15.28,0 -27.66,12.38 -27.66,27.65 l 0,190.68 c 0,15.26 12.38,27.64 27.66,27.64 15.26,0 27.66,-12.38 27.66,-27.64 l 0,-190.68 z m -100.44,0 c 0,-15.27 -12.39,-27.65 -27.65,-27.65 -15.29,0 -27.66,12.38 -27.66,27.65 l 0,190.68 c 0,15.26 12.37,27.64 27.66,27.64 15.26,0 27.65,-12.38 27.65,-27.64 l 0,-190.68 z m -100.43,0 c 0,-15.27 -12.4,-27.65 -27.65,-27.65 -15.28,0 -27.66,12.38 -27.66,27.65 l 0,190.68 c 0,15.26 12.38,27.64 27.66,27.64 15.25,0 27.65,-12.38 27.65,-27.64 l 0,-190.68 z m -248.75,69.87 c 0,-10.45 -8.45,-18.93 -18.92,-18.93 -10.43,0 -18.92,8.48 -18.92,18.93 l 0,212.5 c 0,10.45 8.49,18.92 18.92,18.92 10.47,0 18.92,-8.47 18.92,-18.92 l 0,-212.5 z m -91.69,0 c 0,-10.45 -8.46,-18.93 -18.92,-18.93 -10.45,0 -18.93,8.48 -18.93,18.93 l 0,212.5 c 0,10.45 8.48,18.92 18.93,18.92 10.46,0 18.92,-8.47 18.92,-18.92 l 0,-212.5 z m -91.7,0 c 0,-10.45 -8.46,-18.93 -18.93,-18.93 -10.43,0 -18.92,8.48 -18.92,18.93 l 0,212.5 c 0,10.45 8.49,18.92 18.92,18.92 10.47,0 18.93,-8.47 18.93,-18.92 l 0,-212.5 z m -91.7,0 c 0,-10.45 -8.46,-18.93 -18.92,-18.93 -10.44,0 -18.92,8.48 -18.92,18.93 l 0,212.5 c 0,10.45 8.48,18.92 18.92,18.92 10.46,0 18.92,-8.47 18.92,-18.92 l 0,-212.5 z m -146,17.95 -114.03,0 0,161.06 114.03,0 0,-161.06 z m -57.03,217.95 c 29.45,0 53.41,-22.43 56.43,-51.06 l -112.85,0 c 3.03,28.63 26.98,51.06 56.42,51.06 z m 1779.52,6.19 0,34.93 -15.52,0 0,60.65 -11.4,0 0,-14.55 -11.4,0 0,-9.24 -22.8,0 0,81.04 27.17,0 c 0,31.07 -63,56.29 -140.7,56.29 l -0.01,0 0,111.83 c 0,2.14 -1.74,3.88 -3.88,3.88 -2.13,0 -3.87,-1.74 -3.87,-3.88 l 0,-17.5 c -5.1,-2.75 -15.15,-6.54 -29.84,-4.09 -21.83,3.65 -38.57,2.88 -38.57,2.88 l 8.01,-62.56 c 0,0 8.24,-5.09 28.11,7.29 14.18,8.79 26.36,4.36 32.29,1.04 l 0,-39.05 c -74.08,-1.62 -132.94,-26.1 -132.94,-56.13 l 27.16,0 0,-81.04 -69.37,0 0,83.74 c 0,1.56 -1.28,2.85 -2.84,2.85 -1.57,0 -2.84,-1.29 -2.84,-2.85 l 0,-12.82 c -3.74,-2.03 -11.1,-4.78 -21.86,-2.99 -15.99,2.66 -28.26,2.1 -28.26,2.1 l 5.87,-45.81 c 0,0 6.04,-3.73 20.61,5.32 10.37,6.45 19.29,3.2 23.64,0.78 l 0,-30.32 -78.25,0 0,-36.86 -56.43,0 0,18.47 -13.38,0 0,17.08 -13.37,0 0,-35.55 -110.01,0 0,18.47 -14.95,0 0,17.08 -13.38,0 0,-17.08 -14.95,0 0,-18.47 -49.63,0 0,55.32 -11.15,0 0,33.95 -15.75,0 0,40.58 c 14.93,2.42 25.84,9.59 25.84,18.14 0,8.55 -10.91,15.71 -25.84,18.13 l 0,15.34 c 0,6.03 -4.89,10.92 -10.93,10.92 -6.01,0 -10.91,-4.89 -10.91,-10.92 l 0,-15.34 c -14.93,-2.42 -25.83,-9.58 -25.83,-18.13 0,-8.55 10.9,-15.72 25.83,-18.14 l 0,-40.58 -17.12,0 c -16.24,88.3 -93.45,155.25 -186.42,155.25 -92.98,0 -170.21,-66.95 -186.44,-155.25 l -17.12,0 0,40.58 c 14.94,2.42 25.83,9.59 25.83,18.14 0,8.55 -10.89,15.71 -25.83,18.13 l 0,15.34 c 0,6.03 -4.89,10.92 -10.91,10.92 -6.03,0 -10.92,-4.89 -10.92,-10.92 l 0,-15.34 c -14.93,-2.42 -25.84,-9.58 -25.84,-18.13 0,-8.55 10.91,-15.72 25.84,-18.14 l 0,-40.58 -15.74,0 0,-33.95 -11.17,0 0,-55.32 -49.63,0 0,18.47 -14.96,0 0,17.08 -13.37,0 0,-17.08 -14.97,0 0,-18.47 -110,0 0,35.55 -13.38,0 0,-17.08 -13.36,0 0,-18.47 -56.43,0 0,36.86 -78.25,0 0,30.32 c 4.34,2.42 13.28,5.67 23.64,-0.78 14.58,-9.05 20.61,-5.32 20.61,-5.32 l 5.87,45.81 c 0,0 -12.26,0.56 -28.26,-2.1 -10.76,-1.79 -18.11,0.96 -21.86,2.99 l 0,12.82 c 0,1.56 -1.26,2.85 -2.83,2.85 -1.58,0 -2.85,-1.29 -2.85,-2.85 l 0,-83.74 -69.38,0 0,81.04 27.18,0 c 0,30.03 -58.86,54.51 -132.95,56.13 l 0,39.05 c 5.93,3.32 18.1,7.75 32.27,-1.04 19.9,-12.38 28.13,-7.29 28.13,-7.29 l 8.01,62.56 c 0,0 -16.74,0.77 -38.57,-2.88 -14.69,-2.45 -24.75,1.34 -29.84,4.09 l 0,17.5 c 0,2.14 -1.73,3.88 -3.87,3.88 -2.15,0 -3.89,-1.74 -3.89,-3.88 l 0,-111.83 c -77.71,0 -140.71,-25.22 -140.71,-56.29 l 27.18,0 0,-81.04 -22.8,0 0,9.24 -11.41,0 0,14.55 -11.39,0 0,-60.65 -15.52,0 0,-34.93 -31.05,0 0,-25.24 17.79,0 23.92,-40.74 0,-393.87 1938.44,0 0,393.87 23.92,40.74 17.8,0 0,25.24 -31.06,0"
         style="fill:#040606;fill-opacity:1;fill-rule:nonzero;stroke:none"
         id="path3429"
         inkscape:connector-curvature="0" /><path
         d="m 3701.49,4199.34 c 0,-6.99 -5.65,-12.64 -12.63,-12.64 l -128.44,0 c -6.99,0 -12.64,5.65 -12.64,12.64 l 0,370.64 c 0,6.97 5.65,12.64 12.64,12.64 l 128.44,0 c 6.98,0 12.63,-5.67 12.63,-12.64 l 0,-370.64 z m -244.26,0 c 0,-6.99 -5.68,-12.64 -12.63,-12.64 l -128.48,0 c -6.95,0 -12.63,5.65 -12.63,12.64 l 0,370.64 c 0,6.97 5.68,12.64 12.63,12.64 l 128.48,0 c 6.95,0 12.63,-5.67 12.63,-12.64 l 0,-370.64 z m -255.62,751.28 c 1.55,7.66 2.37,15.57 2.37,23.7 0,15.66 -3.1,30.56 -8.61,44.24 l 25.44,6.6 c 1.37,-5.22 2.82,-11.1 3.94,-17.89 3.39,-20.43 6.83,-42.58 14.32,-56.65 l -37.46,0 z m 11.85,-768.12 c 0,-6.97 -5.67,-12.64 -12.63,-12.64 l -230.58,0 c -6.97,0 -12.63,5.67 -12.63,12.64 l 0,404.34 c 0,6.98 5.66,12.63 12.63,12.63 l 230.58,0 c 6.96,0 12.63,-5.65 12.63,-12.63 l 0,-404.34 z m -267.14,824.77 c 1.13,6.79 2.57,12.67 3.94,17.89 l 25.45,-6.6 c -5.53,-13.68 -8.63,-28.58 -8.63,-44.24 0,-8.13 0.84,-16.04 2.39,-23.7 l -37.46,0 c 7.47,14.07 10.93,36.22 14.31,56.65 z m -78.75,-807.93 c 0,-6.99 -5.65,-12.64 -12.63,-12.64 l -128.47,0 c -6.97,0 -12.62,5.65 -12.62,12.64 l 0,370.64 c 0,6.97 5.65,12.64 12.62,12.64 l 128.47,0 c 6.98,0 12.63,-5.67 12.63,-12.64 l 0,-370.64 z m -244.27,0 c 0,-6.99 -5.67,-12.64 -12.64,-12.64 l -128.46,0 c -6.98,0 -12.63,5.65 -12.63,12.64 l 0,370.64 c 0,6.97 5.65,12.64 12.63,12.64 l 128.46,0 c 6.97,0 12.64,-5.67 12.64,-12.64 l 0,-370.64 z m 1313.53,419.61 63.17,97.92 0,36.32 -131.08,0 0,73.16 1.5,0 24.99,54.65 38.26,0 0,22.66 -544.1,0 0,46.96 -101.26,0 c 0.27,0.71 0.33,1.47 -0.1,2.39 -2.69,5.67 -15.68,2.43 -21.59,5.13 -5.96,2.72 -2.18,26.99 4.3,32.93 6.49,5.95 2.71,19.97 19.44,20.52 16.73,0.56 16.19,-25.38 17.82,-34.57 1.61,-9.18 -8.1,-15.63 -4.32,-21.58 3.79,-5.95 12.95,5.39 15.65,25.91 2.7,20.52 -5.39,30.24 -7.56,38.34 -2.16,8.1 7.56,26.44 4.86,38.86 -2.69,12.43 -9.16,17.27 -9.16,22.69 0,5.42 12.14,-1.09 18.62,6.19 6.49,7.3 -2.43,16.2 -4.05,21.07 -1.62,4.86 8.09,13.75 9.72,22.66 1.61,8.91 -11.34,20.25 -26.73,23.5 -15.38,3.23 -43.73,-68.85 -49.4,-82.61 -5.66,-13.77 -24.29,-1.62 -34.82,-12.96 -6.26,-6.74 -5.31,-14.13 -2.59,-24.75 l -27.05,-7.02 c -18.41,36.7 -55.26,62.42 -98.44,65.08 l 0,31.29 c 14.17,3.35 24.74,16 24.74,31.19 0,15.2 -10.57,27.84 -24.74,31.19 l 0,14.16 c 3.21,0.63 6.34,1.88 8.83,4.38 l 50.82,50.81 c 6.63,6.63 6.63,17.38 0,24.01 -6.63,6.63 -17.38,6.63 -24.02,0 l -43.01,-43.02 -43.02,43.02 c -6.62,6.63 -17.37,6.63 -24.01,0 -6.62,-6.63 -6.62,-17.38 0,-24.01 l 50.82,-50.81 c 2.49,-2.5 5.63,-3.75 8.84,-4.38 l 0,-14.18 c -14.18,-3.34 -24.74,-15.98 -24.74,-31.17 0,-15.17 10.56,-27.83 24.74,-31.17 l 0,-31.31 c -43.17,-2.66 -80.03,-28.38 -98.45,-65.08 l -27.05,7.02 c 2.73,10.62 3.68,18.01 -2.6,24.75 -10.5,11.34 -29.14,-0.81 -34.81,12.96 -5.67,13.76 -34.01,85.84 -49.39,82.61 -15.39,-3.25 -28.35,-14.59 -26.72,-23.5 1.61,-8.91 11.33,-17.8 9.71,-22.66 -1.61,-4.87 -10.53,-13.77 -4.06,-21.07 6.5,-7.28 18.63,-0.77 18.63,-6.19 0,-5.42 -6.48,-10.26 -9.18,-22.69 -2.69,-12.42 7.03,-30.76 4.87,-38.86 -2.17,-8.1 -10.25,-17.82 -7.56,-38.34 2.69,-20.52 11.87,-31.86 15.66,-25.91 3.79,5.95 -5.94,12.4 -4.32,21.58 1.62,9.19 1.09,35.13 17.82,34.57 16.72,-0.55 12.96,-14.57 19.44,-20.52 6.48,-5.94 10.23,-30.21 4.32,-32.93 -5.93,-2.7 -18.91,0.54 -21.6,-5.13 -0.44,-0.92 -0.37,-1.68 -0.12,-2.39 l -101.26,0 0,-46.96 -544.11,0 0,-22.66 38.27,0 25,-54.65 1.5,0 0,-73.16 -131.09,0 0,-36.32 63.17,-97.92 30.8,0 0,-72.66 -37.11,0 0,-26.86 38.69,0 18.09,-46.32 -5.72,0 0,-209.54 -24.21,0 0,-161.1 1661.52,0 0,161.1 -24.21,0 0,209.54 -5.71,0 18.08,46.32 38.7,0 0,26.86 -37.12,0 0,72.66 30.8,0"
         style="fill:#040606;fill-opacity:1;fill-rule:nonzero;stroke:none"
         id="path3431"
         inkscape:connector-curvature="0" /><path
         d="m 4599.59,5253.65 c 0,60.01 -38.15,111 -91.46,130.39 l 0,50.86 17.28,0 0,21.19 -35.41,0 0,43.78 -5.75,0 c -0.43,9.48 -6.36,17.49 -14.75,20.86 l 0,549.93 c 0,3.71 -3,6.7 -6.69,6.7 l -4.19,0 c -3.69,0 -6.69,-2.99 -6.69,-6.7 l 0,-549.93 c -8.38,-3.37 -14.32,-11.38 -14.74,-20.86 l -5.75,0 0,-43.78 -35.41,0 0,-21.19 17.28,0 0,-50.86 c -53.32,-19.39 -91.45,-70.38 -91.45,-130.39 0,-60.02 38.13,-110.99 91.45,-130.39 l 0,-27.44 -34.02,0 0,-33.46 29,0 -20.08,-970.4 145,0 -20.08,970.4 29.01,0 0,33.46 -34.01,0 0,27.44 c 53.31,19.4 91.46,70.37 91.46,130.39"
         style="fill:#040606;fill-opacity:1;fill-rule:nonzero;stroke:none"
         id="path3433"
         inkscape:connector-curvature="0" /><path
         d="m 335.012,3841.07 7329.98,0 0,272.289 -7329.98,0 0,-272.289 z"
         style="fill:#040606;fill-opacity:1;fill-rule:nonzero;stroke:none"
         id="path3435"
         inkscape:connector-curvature="0" /><path
         d="m 335.012,3639.59 7329.98,0 0,136.129 -7329.98,0 0,-136.129 z"
         style="fill:#040606;fill-opacity:1;fill-rule:nonzero;stroke:none"
         id="path3437"
         inkscape:connector-curvature="0" /><g
         id="g3439"
         transform="scale(10,10)"><text
           transform="matrix(1,0,0,-1,146.958,250.947)"
           style="font-variant:normal;font-weight:bold;font-size:101px;font-family:Arvo;-inkscape-font-specification:Arvo-Bold;writing-mode:lr-tb;fill:#040606;fill-opacity:1;fill-rule:nonzero;stroke:none"
           id="text3441"><tspan
             x="0 88.552658 176.80899 272.46274 359.04288 422.34555"
             y="0"
             sodipodi:role="line"
             id="tspan3443">BERLIN</tspan></text>
<text
           transform="matrix(1,0,0,-1,248.985,185.845)"
           style="font-variant:normal;font-weight:300;font-size:51px;font-family:Roboto;-inkscape-font-specification:Roboto-Light;writing-mode:lr-tb;fill:#040606;fill-opacity:1;fill-rule:nonzero;stroke:none"
           id="text3445"><tspan
             x="0 45.088387 84.672905 128.44151 183.29114 225.34094 271.05185"
             y="0"
             sodipodi:role="line"
             id="tspan3447">GERMANY</tspan></text>
</g><path
         d="m 1522.94,2187.95 883.328,0 0,28.3203 -883.328,0 0,-28.3203 z"
         style="fill:#040606;fill-opacity:1;fill-rule:nonzero;stroke:none"
         id="path3449"
         inkscape:connector-curvature="0" /><path
         d="m 1522.94,2079.94 883.328,0 0,28.3203 -883.328,0 0,-28.3203 z"
         style="fill:#040606;fill-opacity:1;fill-rule:nonzero;stroke:none"
         id="path3451"
         inkscape:connector-curvature="0" /><path
         d="m 1522.94,1971.91 883.328,0 0,28.3203 -883.328,0 0,-28.3203 z"
         style="fill:#040606;fill-opacity:1;fill-rule:nonzero;stroke:none"
         id="path3453"
         inkscape:connector-curvature="0" /><path
         d="m 1522.94,1863.89 883.328,0 0,28.3203 -883.328,0 0,-28.3203 z"
         style="fill:#040606;fill-opacity:1;fill-rule:nonzero;stroke:none"
         id="path3455"
         inkscape:connector-curvature="0" /><path
         d="m 5593.73,2187.95 883.328,0 0,28.3203 -883.328,0 0,-28.3203 z"
         style="fill:#040606;fill-opacity:1;fill-rule:nonzero;stroke:none"
         id="path3457"
         inkscape:connector-curvature="0" /><path
         d="m 5593.73,2079.94 883.328,0 0,28.3203 -883.328,0 0,-28.3203 z"
         style="fill:#040606;fill-opacity:1;fill-rule:nonzero;stroke:none"
         id="path3459"
         inkscape:connector-curvature="0" /><path
         d="m 5593.73,1971.91 883.328,0 0,28.3203 -883.328,0 0,-28.3203 z"
         style="fill:#040606;fill-opacity:1;fill-rule:nonzero;stroke:none"
         id="path3461"
         inkscape:connector-curvature="0" /><path
         d="m 5593.73,1863.89 883.328,0 0,28.3203 -883.328,0 0,-28.3203 z"
         style="fill:#040606;fill-opacity:1;fill-rule:nonzero;stroke:none"
         id="path3463"
         inkscape:connector-curvature="0" /><path
         d="m 2140,4079.51 0,1503.43 c 0,0 -209.55,1.66 -257.22,-301.58 0,-165.74 0,-299.35 0,-299.35 l -19.96,0 0,226.18 -95.35,37.69 -88.71,-31.04 0,-587.63 -55.42,0 0,168.53 -93.13,0 0,35.48 -121.97,0 0,-281.62 -64.3,0 0,379.19 -102.01,0 0,31.03 -110.86,0 0,-33.26 -117.52,0 0,-312.65 -59.874,0 0,217.31 -68.742,0 0,75.39 -90.911,0 0,39.91 -73.179,0 0,-62.08 -124.184,0 0,-70.96 -79.828,0 0,-57.65 -181.82,0 0,-676.32 1804.988,0"
         style="fill:#040606;fill-opacity:1;fill-rule:nonzero;stroke:none"
         id="path3465"
         inkscape:connector-curvature="0" /><path
         d="m 2085,4065 257.5,0 0,427.5 -257.5,0 0,-427.5 z"
         style="fill:#040606;fill-opacity:1;fill-rule:nonzero;stroke:none"
         id="path3467"
         inkscape:connector-curvature="0" /><path
         d="m 3952.5,4021.35 0,597.16 77.2,0 0,74.93 45.42,0 0,-68.12 261.1,0 0,-118.07 161.21,0 0,-97.63 109,0 0,102.18 118.07,0 0,-93.1 40.86,0 0,34.06 47.69,0 0,52.22 272.47,0 0,-52.22 40.87,0 0,-70.39 52.22,0 0,149.86 -27.25,0 0,65.84 143.04,0 0,34.06 61.31,0 0,-29.51 31.79,0 0,-581.27 -1435,0"
         style="fill:#040606;fill-opacity:1;fill-rule:nonzero;stroke:none"
         id="path3469"
         inkscape:connector-curvature="0" /><path
         d="m 7262.82,4086.39 0,258.15 103.25,0 0,157.61 54.36,0 0,84.24 67.93,0 0,-51.63 95.11,0 0,-40.77 81.52,0 0,-407.6 -402.17,0"
         style="fill:#040606;fill-opacity:1;fill-rule:nonzero;stroke:none"
         id="path3471"
         inkscape:connector-curvature="0" /></g></g></svg>