<svg id="09f28dbf-d0a8-4af6-a3a5-966d0ca71334" data-name="Svgs" xmlns="http://www.w3.org/2000/svg" xmlns:xlink="http://www.w3.org/1999/xlink" width="137" height="42" viewBox="0 0 137 42">
  <defs>
    <linearGradient id="5ba2a1ec-97ba-4fa6-b8b1-1af1926dbbe7" x1="22.8" y1="72.29" x2="6.02" y2="55.51" gradientTransform="matrix(1, 0, 0, -1, 0, 82)" gradientUnits="userSpaceOnUse">
      <stop offset="0" stop-color="#00a0ff"/>
      <stop offset="0.01" stop-color="#00a1ff"/>
      <stop offset="0.26" stop-color="#00beff"/>
      <stop offset="0.51" stop-color="#00d2ff"/>
      <stop offset="0.76" stop-color="#00dfff"/>
      <stop offset="1" stop-color="#00e3ff"/>
    </linearGradient>
    <linearGradient id="cd67acf9-1088-4492-b3d5-4f66fdab3adf" x1="34.83" y1="61" x2="10.64" y2="61" gradientTransform="matrix(1, 0, 0, -1, 0, 82)" gradientUnits="userSpaceOnUse">
      <stop offset="0" stop-color="#ffe000"/>
      <stop offset="0.41" stop-color="#ffbd00"/>
      <stop offset="0.78" stop-color="orange"/>
      <stop offset="1" stop-color="#ff9c00"/>
    </linearGradient>
    <linearGradient id="ecfd6724-0428-4bd5-b9e6-c3d19a84714a" x1="25.83" y1="58.7" x2="3.07" y2="35.95" gradientTransform="matrix(1, 0, 0, -1, 0, 82)" gradientUnits="userSpaceOnUse">
      <stop offset="0" stop-color="#ff3a44"/>
      <stop offset="1" stop-color="#c31162"/>
    </linearGradient>
    <linearGradient id="09dbfa7e-85a9-4766-8af9-b70fa7358db4" x1="8.3" y1="80.82" x2="18.46" y2="70.66" gradientTransform="matrix(1, 0, 0, -1, 0, 82)" gradientUnits="userSpaceOnUse">
      <stop offset="0" stop-color="#32a071"/>
      <stop offset="0.07" stop-color="#2da771"/>
      <stop offset="0.48" stop-color="#15cf74"/>
      <stop offset="0.8" stop-color="#06e775"/>
      <stop offset="1" stop-color="#00f076"/>
    </linearGradient>
  </defs>
  <title>google-play</title>
  <g>
    <rect x="1" y="1" width="135" height="40" rx="5" ry="5"/>
    <path d="M131,1.8A4.2,4.2,0,0,1,135.2,6V36a4.2,4.2,0,0,1-4.2,4.2H6A4.2,4.2,0,0,1,1.8,36V6A4.2,4.2,0,0,1,6,1.8H131m0-.8H6A5,5,0,0,0,1,6V36a5,5,0,0,0,5,5H131a5,5,0,0,0,5-5V6a5,5,0,0,0-5-5Z" style="fill: #a6a6a6"/>
    <g>
      <path d="M48.42,11.24a2.71,2.71,0,0,1-.75,2,2.91,2.91,0,0,1-2.2.89A3.09,3.09,0,0,1,42.35,11a3.09,3.09,0,0,1,3.12-3.13,3.1,3.1,0,0,1,1.23.25,2.47,2.47,0,0,1,.94.67l-.53.53a2,2,0,0,0-1.64-.71A2.32,2.32,0,0,0,43.14,11a2.36,2.36,0,0,0,4,1.73,1.89,1.89,0,0,0,.5-1.22H45.47v-.72h2.91A2.54,2.54,0,0,1,48.42,11.24Z" style="fill: #fff;stroke: #fff;stroke-miterlimit: 10;stroke-width: 0.2px"/>
      <path d="M53,8.74H50.3v1.9h2.46v.72H50.3v1.9H53V14h-3.5V8H53Z" style="fill: #fff;stroke: #fff;stroke-miterlimit: 10;stroke-width: 0.2px"/>
      <path d="M56.28,14h-.77V8.74H53.83V8H58v.74H56.28Z" style="fill: #fff;stroke: #fff;stroke-miterlimit: 10;stroke-width: 0.2px"/>
      <path d="M60.94,14V8h.77v6Z" style="fill: #fff;stroke: #fff;stroke-miterlimit: 10;stroke-width: 0.2px"/>
      <path d="M65.13,14h-.77V8.74H62.68V8H66.8v.74H65.13Z" style="fill: #fff;stroke: #fff;stroke-miterlimit: 10;stroke-width: 0.2px"/>
      <path d="M74.61,13.22a3.12,3.12,0,0,1-4.4,0A3.07,3.07,0,0,1,69.33,11a3.07,3.07,0,0,1,.88-2.22,3.1,3.1,0,0,1,4.4,0A3.07,3.07,0,0,1,75.49,11,3.07,3.07,0,0,1,74.61,13.22Zm-3.83-.5a2.31,2.31,0,0,0,3.26,0A2.35,2.35,0,0,0,74.71,11,2.35,2.35,0,0,0,74,9.28a2.31,2.31,0,0,0-3.26,0A2.35,2.35,0,0,0,70.11,11,2.35,2.35,0,0,0,70.78,12.72Z" style="fill: #fff;stroke: #fff;stroke-miterlimit: 10;stroke-width: 0.2px"/>
      <path d="M76.58,14V8h.94l2.92,4.67h0l0-1.16V8h.77v6h-.8L77.35,9.11h0l0,1.16V14Z" style="fill: #fff;stroke: #fff;stroke-miterlimit: 10;stroke-width: 0.2px"/>
    </g>
    <path d="M69.14,22.75A4.25,4.25,0,1,0,73.41,27,4.19,4.19,0,0,0,69.14,22.75Zm0,6.83A2.58,2.58,0,1,1,71.54,27,2.46,2.46,0,0,1,69.14,29.58Zm-9.31-6.83A4.25,4.25,0,1,0,64.09,27,4.19,4.19,0,0,0,59.82,22.75Zm0,6.83A2.58,2.58,0,1,1,62.22,27,2.46,2.46,0,0,1,59.82,29.58ZM48.74,24.06v1.8h4.32a3.77,3.77,0,0,1-1,2.27,4.42,4.42,0,0,1-3.33,1.32,4.8,4.8,0,0,1,0-9.6A4.6,4.6,0,0,1,52,21.14l1.27-1.27A6.29,6.29,0,0,0,48.74,18a6.61,6.61,0,1,0,0,13.21,6,6,0,0,0,4.61-1.85,6,6,0,0,0,1.56-4.22,5.87,5.87,0,0,0-.1-1.13Zm45.31,1.4a4,4,0,0,0-3.64-2.71,4,4,0,0,0-4,4.25,4.16,4.16,0,0,0,4.22,4.25,4.23,4.23,0,0,0,3.54-1.88l-1.45-1a2.43,2.43,0,0,1-2.09,1.18,2.16,2.16,0,0,1-2.06-1.29l5.69-2.35Zm-5.8,1.42a2.33,2.33,0,0,1,2.22-2.48,1.65,1.65,0,0,1,1.58.9ZM83.63,31H85.5V18.5H83.63Zm-3.06-7.3H80.5a3,3,0,0,0-2.24-1,4.26,4.26,0,0,0,0,8.51,2.9,2.9,0,0,0,2.24-1h.06v.61c0,1.63-.87,2.5-2.27,2.5a2.35,2.35,0,0,1-2.14-1.51l-1.63.68a4.05,4.05,0,0,0,3.77,2.51c2.19,0,4-1.29,4-4.43V23H80.57Zm-2.14,5.88a2.59,2.59,0,0,1,0-5.16A2.4,2.4,0,0,1,80.7,27,2.38,2.38,0,0,1,78.42,29.58ZM102.81,18.5H98.33V31h1.87V26.26h2.61a3.89,3.89,0,1,0,0-7.76Zm0,6H100.2V20.24h2.65a2.14,2.14,0,1,1,0,4.29Zm11.53-1.8a3.5,3.5,0,0,0-3.33,1.91l1.66.69a1.77,1.77,0,0,1,1.7-.92,1.8,1.8,0,0,1,2,1.61v.13a4.13,4.13,0,0,0-1.95-.48c-1.79,0-3.6,1-3.6,2.81a2.89,2.89,0,0,0,3.1,2.75A2.63,2.63,0,0,0,116.32,30h.06v1h1.8V26.19C118.18,24,116.52,22.73,114.39,22.73Zm-.23,6.85c-.61,0-1.46-.31-1.46-1.06,0-1,1.06-1.33,2-1.33a3.32,3.32,0,0,1,1.7.42A2.26,2.26,0,0,1,114.16,29.58ZM124.74,23l-2.14,5.42h-.06L120.32,23h-2l3.33,7.58-1.9,4.21h1.95L126.82,23Zm-16.81,8h1.87V18.5h-1.87Z" style="fill: #fff"/>
    <g>
      <path d="M11.44,8.54A2,2,0,0,0,11,9.94V32.06a2,2,0,0,0,.46,1.4l.07.07L23.9,21.15v-.29L11.51,8.47Z" style="fill: url(#5ba2a1ec-97ba-4fa6-b8b1-1af1926dbbe7)"/>
      <path d="M28,25.28,23.9,21.15v-.29L28,16.72l.09.05L33,19.56c1.4.79,1.4,2.09,0,2.89l-4.89,2.78Z" style="fill: url(#cd67acf9-1088-4492-b3d5-4f66fdab3adf)"/>
      <path d="M28.12,25.22,23.9,21,11.44,33.46a1.63,1.63,0,0,0,2.08.06l14.61-8.3" style="fill: url(#ecfd6724-0428-4bd5-b9e6-c3d19a84714a)"/>
      <path d="M28.12,16.78,13.51,8.48a1.63,1.63,0,0,0-2.08.06L23.9,21Z" style="fill: url(#09dbfa7e-85a9-4766-8af9-b70fa7358db4)"/>
      <g>
        <path d="M28,25.13,13.51,33.38a1.67,1.67,0,0,1-2,0h0l-.07.07h0l.07.07h0a1.66,1.66,0,0,0,2,0l14.61-8.3Z" style="opacity: 0.2;isolation: isolate"/>
        <path d="M11.44,33.32a2,2,0,0,1-.46-1.4v.15a2,2,0,0,0,.46,1.4l.07-.07Z" style="opacity: 0.12;isolation: isolate"/>
      </g>
      <path d="M33,22.3l-5,2.83.09.09L33,22.44a1.75,1.75,0,0,0,1-1.44h0A1.86,1.86,0,0,1,33,22.3Z" style="opacity: 0.12;isolation: isolate"/>
      <path d="M13.51,8.62,33,19.7a1.86,1.86,0,0,1,1,1.3h0a1.75,1.75,0,0,0-1-1.44L13.51,8.48C12.12,7.68,11,8.34,11,9.94v.15C11,8.49,12.12,7.83,13.51,8.62Z" style="fill: #fff;opacity: 0.25;isolation: isolate"/>
    </g>
  </g>
</svg>
